<svg width="39" height="40" viewBox="0 0 39 40" fill="none" xmlns="http://www.w3.org/2000/svg">
<path d="M19.5 0.625C8.72782 0.625 0 9.29688 0 20C0 30.7031 8.72782 39.375 19.5 39.375C30.2722 39.375 39 30.7031 39 20C39 9.29688 30.2722 0.625 19.5 0.625ZM19.5 8.125C23.3214 8.125 26.4194 11.2031 26.4194 15C26.4194 18.7969 23.3214 21.875 19.5 21.875C15.6786 21.875 12.5806 18.7969 12.5806 15C12.5806 11.2031 15.6786 8.125 19.5 8.125ZM19.5 35C14.8845 35 10.7486 32.9219 7.98085 29.6719C9.45907 26.9062 12.3526 25 15.7258 25C15.9145 25 16.1032 25.0313 16.2841 25.0859C17.3063 25.4141 18.3756 25.625 19.5 25.625C20.6244 25.625 21.7016 25.4141 22.7159 25.0859C22.8968 25.0313 23.0855 25 23.2742 25C26.6474 25 29.5409 26.9062 31.0192 29.6719C28.2514 32.9219 24.1155 35 19.5 35Z" fill="#9FB0CC"/>
</svg>
