<svg width="30" height="30" viewBox="0 0 30 30" fill="none" xmlns="http://www.w3.org/2000/svg">
<path d="M30 7.5V26.7857C30 28.5603 28.7402 30 27.1875 30H2.8125C1.25977 30 0 28.5603 0 26.7857V7.5C0 5.72545 1.25977 4.28571 2.8125 4.28571H7.96875L8.68945 2.08259C9.09961 0.830357 10.1484 0 11.3203 0H18.6738C19.8457 0 20.8945 0.830357 21.3047 2.08259L22.0312 4.28571H27.1875C28.7402 4.28571 30 5.72545 30 7.5ZM22.0312 17.1429C22.0312 12.7098 18.8789 9.10714 15 9.10714C11.1211 9.10714 7.96875 12.7098 7.96875 17.1429C7.96875 21.5759 11.1211 25.1786 15 25.1786C18.8789 25.1786 22.0312 21.5759 22.0312 17.1429ZM20.1562 17.1429C20.1562 20.3906 17.8418 23.0357 15 23.0357C12.1582 23.0357 9.84375 20.3906 9.84375 17.1429C9.84375 13.8951 12.1582 11.25 15 11.25C17.8418 11.25 20.1562 13.8951 20.1562 17.1429Z" fill="white" fill-opacity="0.7"/>
</svg>
